<svg width="67" height="138" viewBox="0 0 67 138" fill="none" xmlns="http://www.w3.org/2000/svg">
<path d="M42.3735 2C20.0757 2 2 8.70712 2 16.9808C2 25.2544 20.0757 31.9616 42.3735 31.9616C54.8697 31.9616 65 29.1224 65 25.62C65 22.1177 54.8697 19.2785 42.3735 19.2785C20.0757 19.2785 2 25.9856 2 34.2592C2 42.5329 20.0757 49.2403 42.3735 49.2403C54.8697 49.2403 65 46.401 65 42.8985C65 39.3961 54.8697 36.5569 42.3735 36.5569C20.0757 36.5569 2 43.3052 2 51.6296C2 59.9539 20.0757 66.7025 42.3735 66.7025C54.8697 66.7025 65 63.8632 65 60.3607C65 56.8582 54.8697 54.0194 42.3735 54.0194C20.0757 54.0194 2 60.7263 2 69C2 77.2737 20.0757 83.9806 42.3735 83.9806C54.8697 83.9806 65 81.1418 65 77.6393C65 74.1368 54.8697 71.2975 42.3735 71.2975C20.0757 71.2975 2 78.0049 2 86.2786C2 94.5523 20.0757 101.259 42.3735 101.259C54.8697 101.259 65 98.4199 65 94.9179C65 91.4155 54.8697 88.5761 42.3735 88.5761C20.0757 88.5761 2 95.2835 2 103.557C2 111.83 20.0757 118.538 42.3735 118.538C54.8697 118.538 65 115.698 65 112.196C65 108.694 54.8697 105.855 42.3735 105.855C20.0757 105.855 2 112.603 2 120.927C2 129.251 20.0757 136 42.3735 136" stroke="#C29030" stroke-width="3" stroke-linecap="round"/>
</svg>
