<svg width="79" height="76" viewBox="0 0 79 76" fill="none" xmlns="http://www.w3.org/2000/svg">
<g filter="url(#filter0_f_1022_253)">
<path d="M40.2244 40.7081C40.4904 40.6849 40.6338 41.173 40.2244 41.4278C39.8629 41.6993 39.0177 41.502 38.7765 40.7081C38.4894 39.9582 39.0411 38.785 40.2244 38.5492C41.3604 38.2556 42.8982 39.1427 43.1202 40.7081C43.429 42.2217 42.1812 44.0971 40.2244 44.3067C38.3145 44.6234 36.0819 43.0386 35.8805 40.7081C35.5469 38.4255 37.4968 35.8595 40.2244 35.6703C42.905 35.3329 45.8408 37.6087 46.016 40.7081C46.369 43.7639 43.7268 47.0156 40.2244 47.1856C36.7646 47.5461 33.1461 44.5782 32.9847 40.7081C32.6167 36.8904 35.9427 32.9354 40.2244 32.7914C44.4591 32.4102 48.7712 36.0691 48.9118 40.7081C49.3048 45.2965 45.2781 49.9411 40.2244 50.0644C35.2186 50.4646 30.2047 46.1162 30.0889 40.7081C29.6753 35.3507 34.3968 30.0155 40.2244 29.9125C46.0036 29.4864 51.7124 34.5339 51.8076 40.7081C52.242 46.8317 46.8255 52.8649 40.2244 52.943C33.6716 53.3887 27.2677 47.653 27.1931 40.7081C26.7381 33.81 32.8511 27.097 40.2244 27.0339C47.5493 26.5731 54.6538 32.9887 54.7034 40.7081C55.1832 48.3755 48.3697 55.7795 40.2244 55.8219C32.127 56.3031 24.3263 49.1965 24.2973 40.7081C23.7968 32.2732 31.3052 24.1741 40.2244 24.1549C49.0952 23.6464 57.591 31.4574 57.5992 40.7081C58.1204 49.9121 49.9171 58.7036 40.2244 58.7008C30.5814 59.2272 21.385 50.7334 21.4015 40.7081C20.8554 30.7352 29.7606 21.2542 40.2244 21.2761C50.6465 20.7278 60.5268 29.9181 60.495 40.7081C61.0562 51.4489 51.4684 61.6263 40.2244 61.5797C29.0273 62.1513 18.4547 52.2688 18.5057 40.7081C17.9252 29.1984 28.2068 18.3301 40.2244 18.3973C52.1922 17.8037 63.4679 28.3826 63.3907 40.7081C63.9962 52.9911 53.014 64.5448 40.2244 64.4583C27.4827 65.0712 15.512 53.8068 15.6099 40.7081C14.9839 27.659 26.6609 15.4075 40.2244 15.5185C53.7395 14.881 66.4052 26.8433 66.2865 40.7081C66.9334 54.5321 54.5614 67.4634 40.2244 67.3372C25.9382 67.9897 12.5707 55.3489 12.7141 40.7081C12.0411 26.1138 25.1164 12.4944 40.2244 12.6397C55.2852 11.9666 69.3452 25.2982 69.1823 40.7081C69.876 56.0686 56.1056 70.3874 40.2244 70.2161C24.3897 70.9124 9.63489 56.8858 9.81828 40.7081C9.10535 24.5785 23.5693 9.57031 40.2244 9.76086C56.8297 9.04251 72.2863 23.7629 72.0781 40.7081C72.8174 57.6069 57.6502 73.3074 40.2244 73.095C22.8398 73.8337 6.69907 58.4226 6.92246 40.7081C6.16955 23.0473 22.0179 6.64351 40.2244 6.88203C58.3838 6.11983 75.2182 22.2262 74.9739 40.7081C75.7476 59.1423 59.2043 76.2315 40.2244 75.9736C21.294 76.7578 3.75777 59.9592 4.02667 40.7081C3.22823 21.5051 20.4721 3.72494 40.2244 4.00322" stroke="#B6C230" stroke-width="3" stroke-linecap="round"/>
</g>
<defs>
<filter id="filter0_f_1022_253" x="0.5" y="0.5" width="78" height="79" filterUnits="userSpaceOnUse" color-interpolation-filters="sRGB">
<feFlood flood-opacity="0" result="BackgroundImageFix"/>
<feBlend mode="normal" in="SourceGraphic" in2="BackgroundImageFix" result="shape"/>
<feGaussianBlur stdDeviation="1" result="effect1_foregroundBlur_1022_253"/>
</filter>
</defs>
</svg>
