<svg width="228" height="211" viewBox="0 0 228 211" fill="none" xmlns="http://www.w3.org/2000/svg">
<path fill-rule="evenodd" clip-rule="evenodd" d="M111.307 6.62686C132.335 5.71537 154.599 -6.19495 172.859 4.29454C191.435 14.9656 194.501 39.6514 203.047 59.3266C212.711 81.577 234.795 103.942 225.954 126.534C217.041 149.307 183.027 146.514 163.291 160.909C143.529 175.323 135.364 205.822 111.307 210.153C86.7467 214.575 60.2785 201.144 43.7162 182.437C28.3342 165.064 35.5094 138.305 28.1838 116.269C20.7691 93.9651 -4.67114 76.0715 0.751846 53.1994C6.16003 30.3898 31.9408 18.5529 53.5062 9.4682C71.7355 1.78896 91.5517 7.48322 111.307 6.62686Z" fill="#3037C2"/>
</svg>
